<svg version="1.2" xmlns="http://www.w3.org/2000/svg" viewBox="0 0 252 144" width="500" height="286">
	<style>
		.s0 { fill: #8e145c } 
	</style>
	<g id="Layer 1">
		<path id="&lt;Compound Path&gt;" class="s0" d="m126.27 59.45c6.01-0.08 7.29 5.46 7.29 5.46 0 0 1.65 7.53 8.7 25.86 8.32 21.64 27.97 31.74 61.36 26.1 33.38-5.64 36.91-54.31 37.85-59.24 0.67-3.54 3.52-5.15 5.08-5.78 0.62-0.24 1.02-0.85 1-1.51v-15.04c-0.02-0.81-1.05-1.47-1.85-1.54l-20.22-1.76h-43.96c-30.33 0-39.73 11.29-42.79 14.58-3.05 3.29-4.93 2.35-4.93 2.35h-15.05c0 0-1.88 0.94-4.94-2.35-3.05-3.29-12.45-14.58-42.78-14.58h-43.96l-20.22 1.76c-0.8 0.07-1.83 0.73-1.85 1.54v15.04c-0.02 0.66 0.38 1.26 1 1.51 1.56 0.63 4.41 2.23 5.08 5.77 0.94 4.94 4.47 53.6 37.85 59.25 33.38 5.64 53.03-4.46 61.36-26.1 7.05-18.33 8.7-25.86 8.7-25.86 0 0 1.27-5.54 7.28-5.46zm78.99 51.54c0 0-41.61 11.75-56.42-18.1-14.81-29.86-6.58-41.61-3.76-43.96 0 0 10.34-9.41 27.98-10.11 17.63-0.71 41.84 0 41.84 0 0 0 17.16-0.24 17.16 15.04 0 15.29 0 48.43-26.8 57.13zm-184.78-57.13c0.01-15.28 17.17-15.04 17.17-15.04 0 0 24.21-0.71 41.84 0 17.63 0.7 27.98 10.11 27.98 10.11 2.82 2.35 11.05 14.1-3.76 43.96-14.82 29.85-56.43 18.1-56.43 18.1-26.8-8.7-26.8-41.85-26.8-57.13z"/>
	</g>
</svg>