<?xml version="1.0" encoding="utf-8"?>
<svg xmlns="http://www.w3.org/2000/svg" viewBox="10.007 9.598 711.432 479.858">
  <path d="M 49.89 364.595 C 53.032 365.976 55.034 367.548 57.367 370.052 C 58.359 371.093 58.359 371.093 59.371 372.155 C 60.079 372.898 60.786 373.642 61.515 374.407 C 65.483 378.469 68.14 380.92 72.475 384.414 C 72.194 384.675 71.797 385.071 71.546 385.257 C 70.834 385.781 70.497 385.936 69.768 386.371 C 69.042 386.805 68.15 387.21 67.733 387.949 C 67.581 388.09 67.299 388.382 67.112 388.566 C 65.857 389.509 65.53 390.658 64.39 391.943 C 58.385 387.687 56.55 385.649 51.328 380.47 C 50.593 379.767 49.857 379.065 49.099 378.341 C 48.41 377.659 47.721 376.977 47.012 376.275 C 46.387 375.663 45.762 375.052 45.119 374.422 C 43.89 372.595 43.89 372.595 44.035 370.505 C 45.299 367.683 47.422 366.367 49.89 364.595 Z" fill="#FFFFFF" style="stroke-width: 1;"/>
  <path d="M 104.89 406.595 C 104.299 407.913 103.692 409.224 103.078 410.532 C 102.741 411.263 102.405 411.994 102.058 412.747 C 100.89 414.595 100.89 414.595 97.89 415.595 C 95.255 414.183 92.82 412.729 90.328 411.095 C 89.616 410.637 88.903 410.18 88.17 409.708 C 86.068 408.35 83.977 406.976 81.89 405.595 C 80.809 404.883 79.727 404.172 78.613 403.439 C 73.614 400.053 76.173 402.033 74.449 400.575 C 74.449 399.915 74.923 399.66 75.334 398.997 C 75.945 398.315 76.549 397.183 76.988 396.132 C 77.799 394.556 77.648 395.226 78.317 393.531 C 78.317 393.531 79.223 391.377 79.224 391.377 C 79.252 391.278 79.343 391.134 79.403 391.001 C 79.608 390.546 79.621 390.709 79.753 390.312 C 79.768 390.268 79.87 390.129 79.886 390.087 C 88.914 397.113 94.937 400.588 104.89 406.595" fill="#FFFFFF" style="stroke-width: 1;"/>
  <path d="M 223.084 89.301 C 226.054 90.951 229.024 92.601 232.084 94.301 C 230.487 98.606 228.398 102.588 226.209 106.613 C 223.413 111.802 222.448 114.513 219.854 119.808 C 216.414 118.532 216.104 118.584 214.605 118.021 C 211.914 117.803 210.16 116.4 208.018 116.354 L 209.05 114.391 C 213.364 105.304 218.291 96.855 222.084 90.301 C 222.414 89.971 222.744 89.641 223.084 89.301 Z" fill="#FFFFFF" style="stroke-width: 1;"/>
  <path d="M 205.673 121.23 C 205.676 121.222 205.68 121.215 205.683 121.207 C 205.696 121.213 205.709 121.22 205.721 121.226 C 205.705 121.227 205.689 121.228 205.673 121.23 Z" fill="#FFFFFF" style="stroke-width: 1;"/>
  <path d="M 202.96 128.168 C 205.27 128.168 212.51 129.595 214.89 129.595 C 214.72 130.168 214.55 130.742 214.375 131.333 C 212.312 138.563 210.734 145.854 209.249 153.219 C 209.087 154.015 208.925 154.81 208.758 155.63 C 208.614 156.346 208.471 157.061 208.324 157.798 C 207.89 159.595 207.89 159.595 206.89 161.595 C 203.92 161.595 200.95 161.595 197.89 161.595 C 195.425 151.732 198.143 139.791 202.719 128.17 C 202.799 128.168 202.88 128.166 202.961 128.164 C 202.961 128.165 202.96 128.167 202.96 128.168 Z" fill="#FFFFFF" style="stroke-width: 1;"/>
  <path d="M 497.89 270.595 C 501.35 271.844 504.04 273.27 506.89 275.595 C 502.97 287.093 492.13 296.905 483.89 305.595 C 479.1 304.786 477.76 302.335 474.89 298.595 C 475.82 297.729 476.75 296.862 477.7 295.97 C 485.34 288.35 491.68 279.384 497.89 270.595 Z" fill="#FFFFFF" style="stroke-width: 1;"/>
  <path d="M 664.89 231.595 C 669.61 232.961 673.55 234.986 677.64 237.657 C 678.25 238.051 678.85 238.444 679.48 238.849 C 686.45 243.475 693.03 248.727 697.89 255.595 C 694.42 258.565 694.42 258.565 690.89 261.595 C 687.25 259.773 685.48 258.371 682.64 255.595 C 676.08 249.536 668.54 245.142 660.89 240.595 C 662.21 237.625 663.53 234.655 664.89 231.595 Z" fill="#FFFFFF" style="stroke-width: 1;"/>
  <path d="M 437.89 34.595 C 449.84 36.219 461.42 46.575 470.89 53.595 C 470.11 57.456 468.46 59.608 465.89 62.595 C 463.02 61.213 460.34 59.671 457.66 57.95 C 456.45 57.182 456.45 57.182 455.22 56.398 C 453.56 55.333 451.9 54.268 450.24 53.202 C 444.89 49.795 439.47 46.606 433.89 43.595 C 434.95 40.192 435.9 37.581 437.89 34.595 Z" fill="#FFFFFF" style="stroke-width: 1;"/>
  <path d="M 673.89 371.595 C 676.83 373.013 679.32 374.578 681.89 376.595 C 681.03 381.319 678.09 383.623 674.64 386.72 C 674.02 387.287 673.4 387.853 672.76 388.437 C 668.52 392.261 664.15 395.907 659.64 399.407 C 658.82 400.047 658.82 400.047 657.98 400.699 C 654.15 403.595 654.15 403.595 651.89 403.595 C 650.6 402.064 650.6 402.064 649.27 400.095 C 648.82 399.445 648.37 398.795 647.91 398.126 C 647.58 397.621 647.24 397.115 646.89 396.595 C 648.41 392.616 650.76 391 654.2 388.595 C 661.28 383.455 667.57 377.624 673.89 371.595 Z" fill="#FFFFFF" style="stroke-width: 1;"/>
  <path d="M 276.89 317.595 C 277.559 317.996 278.228 318.397 278.918 318.81 C 285.185 322.52 291.52 326.056 297.953 329.47 C 298.691 329.863 299.429 330.256 300.189 330.661 C 300.886 331.028 301.583 331.396 302.301 331.775 C 302.921 332.102 303.541 332.429 304.18 332.766 C 306.064 333.724 306.064 333.724 308.89 334.595 C 308.383 338.314 307.774 341.329 305.89 344.595 C 301.326 343.964 297.519 342.157 293.453 340.095 C 292.76 339.747 292.067 339.399 291.353 339.04 C 284.215 335.377 277.534 331.079 270.89 326.595 C 274.64 319.845 274.64 319.845 276.89 317.595 Z" fill="#FFFFFF" style="stroke-width: 1;"/>
  <path d="M 238.89 279.595 C 242.077 282.582 244.784 285.698 247.453 289.157 C 252.422 295.481 258.128 301.005 263.89 306.595 C 261.554 310.434 260.028 312.804 255.89 314.595 C 246.735 305.797 238.295 296.926 230.89 286.595 C 233.468 283.947 235.807 281.651 238.89 279.595 Z" fill="#FFFFFF" style="stroke-width: 1;"/>
  <path d="M 483.89 66.595 C 492.76 70.318 499.5 80.059 505.08 87.595 C 505.56 88.242 506.04 88.888 506.54 89.555 C 509.89 94.213 509.89 94.213 509.89 97.595 C 504.71 100.817 504.71 100.817 502.89 101.595 C 499.11 100.334 498.49 98.919 496.27 95.657 C 491.62 89.068 486.46 83.005 480.63 77.431 C 478.89 75.595 478.89 75.595 478.89 73.657 C 480.2 70.965 481.94 68.855 483.89 66.595 Z" fill="#FFFFFF" style="stroke-width: 1;"/>
  <path d="M 258.89 51.595 C 261.854 54.403 264.335 56.778 265.89 60.595 C 265.019 61.31 264.148 62.026 263.25 62.763 C 254.77 69.823 247.181 77.317 239.89 85.595 C 237.25 83.615 234.61 81.635 231.89 79.595 C 234.329 75.09 237.418 71.56 240.89 67.845 C 241.459 67.233 242.028 66.621 242.614 65.991 C 247.653 60.665 253.041 56.026 258.89 51.595 Z" fill="#FFFFFF" style="stroke-width: 1;"/>
  <path d="M 310.89 24.595 C 311.305 26.661 311.305 26.661 311.515 29.157 C 311.59 29.984 311.665 30.81 311.742 31.661 C 311.791 32.299 311.84 32.937 311.89 33.595 C 310.909 34.08 309.928 34.564 308.918 35.064 C 301.065 38.96 293.269 42.927 285.589 47.155 C 281.104 49.595 281.104 49.595 278.89 49.595 C 274.917 44.599 274.917 44.599 274.84 41.661 C 276.545 38.308 279.687 36.996 282.89 35.282 C 283.595 34.896 284.3 34.511 285.026 34.113 C 290.318 31.281 295.728 28.784 301.265 26.47 C 301.996 26.163 302.727 25.855 303.48 25.539 C 308.636 23.468 308.636 23.468 310.89 24.595 Z" fill="#FFFFFF" style="stroke-width: 1;"/>
  <path d="M 27.89 317.595 C 28.159 318.576 28.427 319.557 28.703 320.568 C 31.089 328.896 33.941 336.304 38.474 343.72 C 39.512 345.485 39.512 345.485 40.89 348.595 C 40.044 351.72 39.072 352.46 36.453 354.407 C 33.89 355.595 33.89 355.595 30.89 354.595 C 29.446 352.13 28.176 349.729 26.953 347.157 C 26.423 346.066 26.423 346.066 25.882 344.952 C 21.879 336.626 18.651 328.693 16.89 319.595 C 20.751 318.158 23.787 317.483 27.89 317.595 Z" fill="#FFFFFF" style="stroke-width: 1;"/>
  <path d="M 215.89 233.595 C 217.41 236.376 217.41 236.376 218.703 240.095 C 219.197 241.452 219.695 242.808 220.199 244.161 C 220.464 244.878 220.73 245.595 221.003 246.334 C 222.567 250.321 224.418 254.171 226.265 258.032 C 226.624 258.784 226.982 259.535 227.351 260.31 C 228.194 262.073 229.041 263.834 229.89 265.595 C 225.93 268.07 225.93 268.07 221.89 270.595 C 218.972 267.897 217.103 265.485 215.418 261.892 C 214.781 260.544 214.781 260.544 214.131 259.169 C 213.701 258.237 213.271 257.305 212.828 256.345 C 212.394 255.428 211.96 254.512 211.513 253.568 C 204.89 239.434 204.89 239.434 204.89 234.595 C 208.962 232.985 211.723 231.966 215.89 233.595 Z" fill="#FFFFFF" style="stroke-width: 1;"/>
  <path d="M 583.89 428.595 C 586.89 435.22 586.89 435.22 586.89 438.595 C 583.08 440.035 579.27 441.472 575.45 442.907 C 573.85 443.514 573.85 443.514 572.21 444.132 C 569.11 445.299 566 446.45 562.89 447.595 C 562.02 447.924 561.14 448.253 560.24 448.592 C 559.45 448.876 558.66 449.159 557.86 449.45 C 556.84 449.822 556.84 449.822 555.81 450.201 C 553.89 450.595 553.89 450.595 549.89 449.595 C 549.23 446.625 548.57 443.655 547.89 440.595 C 548.64 440.338 549.38 440.081 550.15 439.816 C 553.56 438.639 556.98 437.461 560.39 436.282 C 562.15 435.676 562.15 435.676 563.94 435.058 C 568.86 433.361 573.76 431.667 578.61 429.802 C 581.89 428.595 581.89 428.595 583.89 428.595 Z" fill="#FFFFFF" style="stroke-width: 1;"/>
  <path d="M 71.89 225.595 C 72.88 228.895 73.87 232.195 74.89 235.595 C 73.635 236.224 72.379 236.853 71.086 237.501 C 61.959 242.145 53.474 246.615 45.89 253.595 C 42.563 252.043 40.405 250.289 37.89 247.595 C 42.101 236.85 58.09 231.179 67.89 226.595 C 69.89 225.595 69.89 225.595 71.89 225.595 Z" fill="#FFFFFF" style="stroke-width: 1;"/>
  <path d="M 700.89 325.595 C 702.37 325.849 703.85 326.124 705.33 326.407 C 706.56 326.634 706.56 326.634 707.82 326.864 C 708.51 327.105 709.19 327.346 709.89 327.595 C 711.23 331.612 709.91 334.129 708.45 337.907 C 708.19 338.611 707.92 339.315 707.64 340.041 C 704.34 348.422 699.88 356.106 694.89 363.595 C 691.43 362.346 688.74 360.92 685.89 358.595 C 687.58 353.966 689.91 349.78 692.27 345.47 C 695.75 339.017 698.72 332.622 700.89 325.595 Z" fill="#FFFFFF" style="stroke-width: 1;"/>
  <path d="M 519.89 221.595 C 523.36 222.053 526.56 222.486 529.89 223.595 C 527.46 236.049 522.67 248.313 516.89 259.595 C 513.13 259.083 510.22 258.377 506.89 256.595 C 508.86 250.491 511.03 244.498 513.39 238.532 C 513.98 237.021 514.58 235.509 515.17 233.997 C 515.46 233.271 515.74 232.545 516.04 231.797 C 517.35 228.408 518.62 225.002 519.89 221.595 Z" fill="#FFFFFF" style="stroke-width: 1;"/>
  <path d="M 169.89 437.595 C 181.77 441.555 193.65 445.515 205.89 449.595 C 204.9 452.895 203.91 456.195 202.89 459.595 C 194.647 457.788 186.702 455.337 178.703 452.657 C 177.663 452.322 176.622 451.986 175.55 451.64 C 174.576 451.307 173.601 450.973 172.597 450.63 C 171.715 450.335 170.834 450.04 169.925 449.736 C 167.89 448.595 167.89 448.595 166.909 446.905 C 166.89 444.595 166.89 444.595 169.89 437.595 Z" fill="#FFFFFF" style="stroke-width: 1;"/>
  <path d="M 118.89 415.595 C 125.255 417.602 131.211 420.385 137.251 423.19 C 139.212 424.099 141.177 424.997 143.142 425.896 C 144.388 426.472 145.634 427.049 146.879 427.626 C 148.573 428.408 148.573 428.408 150.302 429.206 C 152.89 430.595 152.89 430.595 153.89 432.595 C 152.78 435.374 151.296 437.955 149.89 440.595 C 142.198 438.256 135.121 435.03 127.89 431.532 C 126.747 430.99 125.604 430.448 124.426 429.89 C 123.341 429.368 122.257 428.847 121.14 428.31 C 120.156 427.837 119.171 427.363 118.156 426.876 C 115.89 425.595 115.89 425.595 114.89 423.595 C 115.668 421.65 115.668 421.65 116.828 419.47 C 117.398 418.383 117.398 418.383 117.98 417.275 C 118.281 416.72 118.581 416.166 118.89 415.595 Z" fill="#FFFFFF" style="stroke-width: 1;"/>
  <path d="M 633.89 405.595 C 635.06 407.443 635.06 407.443 636.08 409.657 C 636.42 410.391 636.77 411.124 637.12 411.88 C 637.38 412.446 637.63 413.012 637.89 413.595 C 629.71 418.294 621.5 422.898 613.08 427.157 C 612.4 427.503 611.73 427.85 611.03 428.206 C 608.13 429.659 606.19 430.595 602.89 430.595 C 600.86 426.865 599.89 424.926 599.89 420.595 C 600.4 420.359 600.92 420.123 601.44 419.88 C 610.79 415.56 619.95 411.267 628.64 405.712 C 630.89 404.595 630.89 404.595 633.89 405.595 Z" fill="#FFFFFF" style="stroke-width: 1;"/>
  <path d="M 221.89 454.595 C 229.316 455.336 236.493 456.955 243.765 458.595 C 245.618 459.005 245.618 459.005 247.508 459.423 C 256.626 461.463 256.626 461.463 258.89 462.595 C 258.56 465.895 258.23 469.195 257.89 472.595 C 250.246 471.943 242.973 470.365 235.515 468.595 C 234.341 468.322 233.167 468.048 231.957 467.767 C 223.379 465.758 223.379 465.758 219.89 464.595 C 220.55 461.295 221.21 457.995 221.89 454.595 Z" fill="#FFFFFF" style="stroke-width: 1;"/>
  <path d="M 531.89 446.595 C 532.55 449.895 533.21 453.195 533.89 456.595 C 527.75 458.358 521.6 460.115 515.45 461.864 C 513.37 462.457 511.3 463.058 509.22 463.661 C 508.29 463.928 507.35 464.195 506.39 464.47 C 505.62 464.694 504.84 464.918 504.05 465.15 C 501.62 465.652 499.37 465.673 496.89 465.595 C 495.57 461.975 494.89 459.499 494.89 455.595 C 499.68 454.308 504.46 453.027 509.25 451.75 C 510.88 451.314 512.51 450.878 514.14 450.44 C 516.48 449.811 518.82 449.187 521.16 448.564 C 521.89 448.367 522.62 448.17 523.37 447.967 C 526.3 447.191 528.84 446.595 531.89 446.595 Z" fill="#FFFFFF" style="stroke-width: 1;"/>
  <path d="M 413.89 333.595 C 416.46 337.444 416.44 340.03 416.89 344.595 C 413.43 345.559 409.97 346.515 406.52 347.47 C 405.55 347.739 404.58 348.009 403.59 348.286 C 387.93 352.595 387.93 352.595 379.89 352.595 C 379.23 349.295 378.57 345.995 377.89 342.595 C 378.63 342.429 379.36 342.263 380.12 342.092 C 383.5 341.325 386.88 340.554 390.26 339.782 C 391.42 339.521 392.58 339.26 393.77 338.991 C 400.56 337.437 407.25 335.71 413.89 333.595 Z" fill="#FFFFFF" style="stroke-width: 1;"/>
  <path d="M 460.89 309.595 C 464.94 310.944 465.85 312.943 467.89 316.595 C 466.75 320.018 466.23 320.293 463.28 322.083 C 462.15 322.768 462.15 322.768 461.01 323.467 C 460.21 323.942 459.4 324.418 458.58 324.907 C 457.36 325.638 457.36 325.638 456.12 326.383 C 438.63 336.761 438.63 336.761 434.65 336.38 C 432.89 335.595 432.89 335.595 431.58 333.282 C 430.84 330.4 430.81 329.315 431.89 326.595 C 433.59 325.334 433.59 325.334 435.79 324.263 C 436.6 323.86 437.4 323.457 438.23 323.041 C 439.52 322.418 439.52 322.418 440.83 321.782 C 447.36 318.509 453.33 315.221 459.08 310.677 C 459.68 310.32 460.27 309.963 460.89 309.595 Z" fill="#FFFFFF" style="stroke-width: 1;"/>
  <path d="M 520.89 113.595 C 522.03 115.462 522.03 115.462 522.93 117.9 C 523.26 118.788 523.59 119.677 523.93 120.593 C 524.27 121.542 524.61 122.492 524.95 123.47 C 525.3 124.426 525.65 125.383 526.01 126.368 C 531.89 142.639 531.89 142.639 531.89 149.595 C 528.59 150.255 525.29 150.915 521.89 151.595 C 521.44 150.074 521 148.553 520.54 146.985 C 515.96 131.518 515.96 131.518 509.89 116.595 C 517.07 112.039 517.07 112.039 520.89 113.595 Z" fill="#FFFFFF" style="stroke-width: 1;"/>
  <path d="M 126.89 212.595 C 127.385 217.545 127.385 217.545 127.89 222.595 C 123.265 223.597 118.639 224.594 114.011 225.586 C 112.437 225.924 110.864 226.263 109.291 226.604 C 107.028 227.094 104.764 227.58 102.5 228.064 C 101.799 228.217 101.097 228.37 100.375 228.528 C 97.1 229.223 94.261 229.595 90.89 229.595 C 89.574 225.975 88.89 223.499 88.89 219.595 C 92.181 218.8 95.473 218.01 98.765 217.22 C 100.142 216.887 100.142 216.887 101.547 216.548 C 119.414 212.27 119.414 212.27 126.89 212.595 Z" fill="#FFFFFF" style="stroke-width: 1;"/>
  <path d="M 477.89 460.595 C 478.55 463.895 479.21 467.195 479.89 470.595 C 475.93 471.437 471.96 472.272 467.99 473.103 C 466.65 473.386 465.3 473.67 463.96 473.956 C 456.61 475.516 449.38 476.946 441.89 477.595 C 441.56 474.295 441.23 470.995 440.89 467.595 C 447.34 465.605 453.9 464.29 460.52 462.97 C 461.63 462.74 462.75 462.511 463.91 462.275 C 464.99 462.058 466.07 461.841 467.18 461.618 C 468.16 461.422 469.13 461.225 470.14 461.022 C 472.89 460.595 472.89 460.595 477.89 460.595 Z" fill="#FFFFFF" style="stroke-width: 1;"/>
  <path d="M 195.89 178.595 C 199.19 178.595 202.49 178.595 205.89 178.595 C 205.976 179.431 206.062 180.268 206.15 181.13 C 206.472 184.269 206.794 187.407 207.117 190.546 C 207.256 191.897 207.395 193.249 207.533 194.601 C 208.251 201.609 208.973 208.61 209.89 215.595 C 206.271 216.911 203.795 217.595 199.89 217.595 C 195.995 204.729 195.597 191.922 195.89 178.595 Z" fill="#FFFFFF" style="stroke-width: 1;"/>
  <path d="M 383.89 17.595 C 390.67 17.928 396.92 19.239 403.45 20.97 C 404.24 21.179 405.03 21.388 405.85 21.603 C 411.27 23.074 416.58 24.779 421.89 26.595 C 420.9 29.895 419.91 33.195 418.89 36.595 C 412.66 35.247 406.49 33.744 400.33 32.095 C 394.53 30.549 388.72 29.037 382.89 27.595 C 382.76 20.97 382.76 20.97 383.89 17.595 Z" fill="#FFFFFF" style="stroke-width: 1;"/>
  <path d="M 423.89 469.595 C 424.38 474.545 424.38 474.545 424.89 479.595 C 420.18 481.165 415.32 481.256 410.39 481.657 C 408.83 481.794 408.83 481.794 407.24 481.933 C 400.49 482.493 393.67 483.024 386.89 482.595 C 385.89 481.595 385.89 481.595 385.79 479.528 C 385.8 478.705 385.82 477.881 385.83 477.032 C 385.84 476.206 385.85 475.38 385.86 474.528 C 385.87 473.89 385.88 473.252 385.89 472.595 C 390.34 472.164 394.79 471.737 399.23 471.313 C 400.74 471.169 402.26 471.023 403.77 470.877 C 405.94 470.665 408.13 470.458 410.31 470.251 C 411.61 470.125 412.92 470 414.27 469.87 C 417.5 469.625 420.66 469.542 423.89 469.595 Z" fill="#FFFFFF" style="stroke-width: 1;"/>
  <path d="M 275.89 465.595 C 279.974 466.048 284.057 466.508 288.14 466.97 C 289.85 467.159 289.85 467.159 291.594 467.353 C 299.072 468.203 306.479 469.279 313.89 470.595 C 313.56 473.895 313.23 477.195 312.89 480.595 C 303.865 480.187 294.968 479.305 286.015 478.095 C 285.034 477.964 284.053 477.834 283.042 477.699 C 281.672 477.508 281.672 477.508 280.273 477.314 C 279.452 477.199 278.631 477.085 277.785 476.968 C 275.89 476.595 275.89 476.595 274.89 475.595 C 274.98 473.903 275.136 472.215 275.328 470.532 C 275.43 469.613 275.532 468.694 275.637 467.747 C 275.72 467.037 275.804 466.327 275.89 465.595 Z" fill="#FFFFFF" style="stroke-width: 1;"/>
  <path d="M 25.89 262.595 C 29.362 263.359 31.888 264.677 34.89 266.595 C 34.28 270.368 33.141 273.397 31.515 276.845 C 28.212 284.504 27.085 292.398 25.89 300.595 C 22.59 300.595 19.29 300.595 15.89 300.595 C 15.126 286.649 19.133 274.691 25.89 262.595 Z" fill="#FFFFFF" style="stroke-width: 1;"/>
  <path d="M 611.89 214.595 C 618.9 215.055 625.34 216.62 632.08 218.532 C 633.04 218.797 633.99 219.062 634.98 219.335 C 639.66 220.638 644.3 221.998 648.89 223.595 C 648.38 227.35 647.67 230.262 645.89 233.595 C 638.9 232.092 631.99 230.357 625.08 228.532 C 623.05 228 621.02 227.467 619 226.935 C 618.11 226.701 617.22 226.468 616.31 226.227 C 614.17 225.669 612.04 225.126 609.89 224.595 C 610.03 223.115 610.18 221.636 610.33 220.157 C 610.41 219.334 610.49 218.51 610.57 217.661 C 610.89 215.595 610.89 215.595 611.89 214.595 Z" fill="#FFFFFF" style="stroke-width: 1;"/>
  <path d="M 167.39 210.407 C 168.842 210.531 168.842 210.531 170.323 210.657 C 171.242 210.746 172.162 210.835 173.109 210.927 C 174.346 211.046 174.346 211.046 175.607 211.168 C 178.063 211.627 179.776 212.268 181.89 213.595 C 183.89 216.595 183.89 216.595 183.828 218.595 C 182.464 221.504 180.76 222.232 177.89 223.595 C 175.262 223.45 175.262 223.45 172.328 222.782 C 163.219 221.072 154.126 221.429 144.89 221.595 C 144.56 217.965 144.23 214.335 143.89 210.595 C 151.92 209.51 159.337 209.692 167.39 210.407 Z" fill="#FFFFFF" style="stroke-width: 1;"/>
  <path d="M 708.89 270.595 C 709.52 272.092 710.15 273.593 710.77 275.095 C 711.11 275.93 711.46 276.765 711.82 277.626 C 714.6 285.34 715.15 291.946 715.02 300.095 C 715.01 301.108 715 302.121 714.99 303.165 C 714.96 305.642 714.93 308.118 714.89 310.595 C 711.59 310.265 708.29 309.935 704.89 309.595 C 704.85 307.872 704.85 307.872 704.81 306.114 C 704.49 296.21 703.27 287.96 699.89 278.595 C 699.54 277.267 699.19 275.935 698.89 274.595 C 700.18 273.923 701.47 273.258 702.77 272.595 C 703.48 272.224 704.2 271.852 704.94 271.47 C 706.89 270.595 706.89 270.595 708.89 270.595 Z" fill="#FFFFFF" style="stroke-width: 1;"/>
  <path d="M 324.89 340.595 C 326.76 340.902 326.76 340.902 328.668 341.216 C 339.749 342.987 350.677 344.174 361.89 344.595 C 361.89 347.895 361.89 351.195 361.89 354.595 C 332.53 355.415 332.53 355.415 322.89 350.595 C 323.55 347.295 324.21 343.995 324.89 340.595 Z" fill="#FFFFFF" style="stroke-width: 1;"/>
  <path d="M 365.89 15.595 C 365.89 18.895 365.89 22.195 365.89 25.595 C 364.826 25.632 363.761 25.67 362.664 25.708 C 354.147 26.072 346.232 26.899 337.941 28.974 C 334.84 29.605 332.046 29.704 328.89 29.595 C 328.23 26.295 327.57 22.995 326.89 19.595 C 340.103 16.247 352.273 15.078 365.89 15.595 Z" fill="#FFFFFF" style="stroke-width: 1;"/>
  <path d="M 565.26 209.364 C 566.47 209.366 567.69 209.368 568.94 209.37 C 570.83 209.389 570.83 209.389 572.77 209.407 C 574.65 209.408 574.65 209.408 576.57 209.409 C 582.43 209.437 588.12 209.518 593.89 210.595 C 593.56 213.895 593.23 217.195 592.89 220.595 C 591.98 220.59 591.07 220.584 590.12 220.579 C 586.72 220.562 583.32 220.549 579.92 220.54 C 578.45 220.535 576.98 220.528 575.51 220.519 C 573.39 220.507 571.28 220.502 569.16 220.497 C 567.89 220.492 566.62 220.487 565.3 220.481 C 561.6 220.511 561.6 220.511 556.89 221.595 C 555.9 218.295 554.91 214.995 553.89 211.595 C 557.82 209.75 560.93 209.348 565.26 209.364 Z" fill="#FFFFFF" style="stroke-width: 1;"/>
  <path d="M 524.89 167.595 C 528.19 167.595 531.49 167.595 534.89 167.595 C 536 180.397 536.2 192.882 533.89 205.595 C 527.27 205.72 527.27 205.72 523.89 204.595 C 524.22 192.385 524.55 180.175 524.89 167.595 Z" fill="#FFFFFF" style="stroke-width: 1;"/>
  <path d="M 330.89 471.595 C 349.7 472.09 349.7 472.09 368.89 472.595 C 368.89 475.895 368.89 479.195 368.89 482.595 C 363.8 482.62 358.71 482.638 353.619 482.65 C 351.887 482.655 350.155 482.662 348.422 482.67 C 345.935 482.682 343.448 482.688 340.961 482.692 C 340.184 482.698 339.406 482.703 338.606 482.708 C 333.118 482.709 333.118 482.709 330.89 481.595 C 330.89 478.295 330.89 474.995 330.89 471.595 Z" fill="#FFFFFF" style="stroke-width: 1;"/>
  <path fill="#FFFFFF" style="stroke-width: 1;"/>
  <path fill="#FFFFFF" style="stroke-width: 1;"/>
  <path fill="#FFFFFF" style="stroke-width: 1;"/>
  <path fill="#FFFFFF" style="stroke-width: 1;"/>
  <path fill="#FFFFFF" style="stroke-width: 1;"/>
  <path fill="#FFFFFF" style="stroke-width: 1;"/>
  <path fill="#FFFFFF" style="stroke-width: 1;"/>
  <path fill="#FFFFFF" style="stroke-width: 1;"/>
  <path fill="#FFFFFF" style="stroke-width: 1;"/>
  <path fill="#FFFFFF" style="stroke-width: 1;"/>
  <path fill="#FFFFFF" style="stroke-width: 1;"/>
  <path fill="#FFFFFF" style="stroke-width: 1;"/>
  <path fill="#FFFFFF" style="stroke-width: 1;"/>
</svg>